# xmcd
#
# Track frame offsets:
#	150
#	23918
#	39494
#	54756
#	71190
#	83538
#	99133
#	114468
#	133550
#	142835
#	158095
#	172101
#
# Disc length: 2448 seconds
#
# Revision: 2
# Processed by: cddbd v1.5.1PL0 Copyright (c) Steve Scherf et al.
# Submitted via: MusicWizard 7.1.1b
#
DISCID=8f098e0c
DTITLE=Reg Poole - Rigs And Roads
DYEAR=1979
DGENRE=Austrian Country
TTITLE0=Devil's Drive
TTITLE1=Thru The Eyes Of A Truckie
TTITLE2=Truck Stop Encounter
TTITLE3=The Truckdriver's Waltz
TTITLE4=The Long Load
TTITLE5=Interstater
TTITLE6=A Greasy Bloody Truckie
TTITLE7=Fireball Dan
TTITLE8=Tow Truck Man
TTITLE9=Princess Of The Highway
TTITLE10=How Come I'm Here Tonight
TTITLE11=Roll Trucker Roll
EXTD=(c)1979 Selection Records Australia   PRML 012
EXTT0=
EXTT1=
EXTT2=
EXTT3=
EXTT4=
EXTT5=
EXTT6=
EXTT7=
EXTT8=
EXTT9=
EXTT10=
EXTT11=
PLAYORDER=
